<svg fill="none" height="800" stroke="#000" stroke-width=".00024" transform="scale(-1 1)" viewBox="-2.4 -2.4 28.8 28.8" width="800" xmlns="http://www.w3.org/2000/svg"><path d="m16 30.52306719c2.46593573-.17693856 3.72761542-3.13929945 5.96424367-4.19269412 2.52388183-1.18868377 6.54875994.11458574 7.88935287-2.33199538 1.35303221-2.46928279-1.93315554-5.1982696-2.22887218-7.99837769-.25313848-2.39694021 1.35636117-4.77877574.6365594-7.07905548-.7715583-2.46567875-2.49106335-4.6763624-4.72251294-5.97847861-2.23476302-1.30404969-4.95458227-1.30549431-7.53877082-1.17633966-2.49527136.12471067-5.185535.32269874-7.1159061 1.90876284-1.87057336 1.53693208-1.67011098 4.46759001-3.05850734 6.45091057-1.57422806 2.24878064-5.23172336 3.15003012-5.56951758 5.87420034-.32851012 2.64929785 2.30097025 4.72133425 4.00039347 6.78013456 1.48700255 1.80145904 3.31362024 3.15732437 5.26378024 4.44313432 2.05866886 1.35735372 4.0202083 3.47627861 6.47975731 3.29979831" fill="#7eecbc" stroke="none" transform="matrix(.9 0 0 .9 -2.4 -2.4)"/><path clip-rule="evenodd" d="m22.7099 5.79421c-.2851-.3121-2.4391-2.61426-5.3842-4.02922-1.4811-.7116-3.2206-1.227501-5.0574-1.10489-1.7211.114886-3.45749.78652-5.07773 2.2541-2.05391-.37228-3.63211.01257-4.69663 1.1075-1.08845 1.11955-1.39815 2.75206-1.43118 4.20561-.03385 1.48947.21855 3.01549.4687 4.14519.12625.5701.25458 1.051.35185 1.3909.04806.168.08868.302.11793.396.08517 5.4494 4.52915 9.8406 9.99876 9.8406 5.2352 0 9.5307-4.0229 9.964-9.1459l1.0227-8.18513c.0347-.27779-.0334-.60841-.2768-.87476zm-17.71996 1.5786c-.75332.63769-1.3882 1.39272-1.87647 2.25094-.04093-.45022-.06134-.90612-.05123-1.351.02947-1.29645.31352-2.28894.86569-2.85689.48489-.49874 1.41115-.89697 3.34303-.44241.33711.07932.69126-.02143.93615-.26631 1.40558-1.40559 2.83719-1.96089 4.19439-2.05148 1.3831-.09232 2.7711.29372 4.0581.91206 2.129 1.02285 3.8212 2.6025 4.4894 3.27819l-.2984 2.38867c-.4507-.69885-1.0033-1.3223-1.6405-1.86177-1.8377-1.55554-4.3282-2.37278-7.0101-2.37278-2.68186 0-5.17244.81724-7.01006 2.37278zm15.01006 6.62719c0 .2189-.0088.4358-.026.6503l-.0876.7007c-.642 3.7749-3.9286 6.649-7.8864 6.649-4.41828 0-8-3.5817-8-8 0-2.1916.87826-3.9123 2.28214-5.10068 1.41974-1.20181 3.42916-1.89929 5.71786-1.89929s4.2981.69748 5.7179 1.89929c1.4038 1.18838 2.2821 2.90908 2.2821 5.10068zm-11.96999 3.2426c-.15573-.623.33618-1.2423.97015-1.2428h6.00004c.6331.0005 1.1258.6174.9701 1.2402-.5178 1.7481-2.1849 2.76-3.9701 2.76-1.7168 0-3.53118-1.0014-3.97019-2.7574zm8.46999-5.2426c0 .8285-.6716 1.5-1.5 1.5s-1.5-.6715-1.5-1.5c0-.8284.6716-1.5 1.5-1.5s1.5.6716 1.5 1.5zm-7.5 1.5c.82843 0 1.5-.6715 1.5-1.5 0-.8284-.67157-1.5-1.5-1.5s-1.5.6716-1.5 1.5c0 .8285.67157 1.5 1.5 1.5z" fill="#000" fill-rule="evenodd"/></svg>