<svg viewBox="0 0 233.73 387.31" xmlns="http://www.w3.org/2000/svg"><g stroke="#000"><path d="m164.83 5.13c-.64.15-71.83 214.47-71.83 214.47s39.09 11.88 38.45 12 60.93-168.17 33.38-226.47z" fill="#dadadb" fill-rule="evenodd" stroke-linejoin="round" stroke-width="7.74"/><path d="m130.45 231.22s-35.14 92.12-28.63 105.78c-.29 8.35-26.16 46-42.88 46.37-14.42.93-61.86-10.37-54.25-57.05 9-48 47.94-31.34 63.32-33.14s41.52-61.27 23.38-74c20.25 5.32 38.55 13.36 39.06 12zm-69.15 68.23c-52.46-13.84-62.65 68.45-15.93 73.28 52.38 2.27 51.94-67.42 15.93-73.28z" fill="#3f3f3f" fill-rule="evenodd" stroke-linejoin="bevel" stroke-width="7.74"/><path d="m52.38 3.81c.64.11 82.55 210.58 82.55 210.58s-38.45 13.83-37.8 13.94-69.34-164.91-44.75-224.52z" fill="#dadadb" fill-rule="evenodd" stroke-linejoin="bevel" stroke-width="7.74"/><path d="m111.58 198.38c-11.81.66-13.78 19 0 19.69 13.12-.66 13.12-19.69 0-19.69z" fill="none" stroke-width="4.84"/><path d="m102.4 204.94c1.31 0 13.12 11.81 13.12 11.81" fill="none" stroke-width="4.84"/><path d="m107.64 200.36c.66 0 12.47 11.8 12.47 11.8" fill="none" stroke-width="4.84"/></g><path d="m164.67 15.33c.66 0-47.24 144.34-47.24 144.34s5.13 9.91 7.1 9.25 45.39-146.37 40.14-153.59z" fill="#e6ffff" fill-opacity=".75" fill-rule="evenodd"/><path d="m103.94 204.52 2.73-3.83 12.56 12-3 3.17-12.24-11.36z" fill-opacity=".32" fill-rule="evenodd"/><path d="m170.59 292.55c51.69-16.46 66 65.2 19.6 72.37-52.19 4.87-55.27-64.71-19.6-72.37zm-72.49-64.67s39.73 90.23 33.9 104.23c.7 8.32 28.43 44.63 45.16 44.15 14.44.18 61.24-13.54 51.31-59.73-11.47-47.45-49.47-28.89-64.9-29.91s-44.57-59.1-27.07-72.68c-20 6.33-37.82 15.29-38.4 13.94z" fill="#3f3f40" fill-rule="evenodd" stroke="#000" stroke-linejoin="bevel" stroke-width="7.74"/></svg>